<svg xmlns="http://www.w3.org/2000/svg" width="16" height="16" viewBox="0 0 16 16">
  <g id="Group_234" data-name="Group 234" transform="translate(-1176 -2399.927)">
    <path id="Path_191" data-name="Path 191" d="M84.905,17.683H71.082a1.137,1.137,0,0,0-1.09,1.176V29.93a1.14,1.14,0,0,0,1.09,1.18h8.8a1.335,1.335,0,0,1-.383-.289,1.863,1.863,0,0,1-.413-1.357v-.018s-.007-.007-.007-.011a1.852,1.852,0,0,1-.61-1.3,1.919,1.919,0,0,1,.617-1.306,1.834,1.834,0,0,1,.413-1.378A1.572,1.572,0,0,1,80.775,25a1.415,1.415,0,0,1,2.407,0c.058.02,1.711-.22,1.69,1.808v.018s.007.007.007.011a1.677,1.677,0,0,1,0,2.594l-.007.007v.033a1.633,1.633,0,0,1-.793,1.635h.827a1.138,1.138,0,0,0,1.087-1.18V18.86a1.134,1.134,0,0,0-1.087-1.176ZM76.359,29.135h-3.52a.362.362,0,0,1,0-.722h3.52a.362.362,0,0,1,0,.722ZM78.244,27.2H72.839a.362.362,0,0,1,0-.722h5.405a.362.362,0,0,1,0,.722Zm4.525-2.937H72.839a.362.362,0,0,1,0-.722H82.77a.362.362,0,0,1,0,.722Zm0-1.939H72.839a.362.362,0,0,1,0-.722H82.77a.362.362,0,0,1,0,.722Zm0-1.939H72.839a.362.362,0,0,1,0-.722H82.77a.362.362,0,0,1,0,.722Z" transform="translate(1106.008 2382.244)" fill="#ffdb4d"/>
    <path id="Path_192" data-name="Path 192" d="M467.419,333a.665.665,0,1,1-.663-.663A.666.666,0,0,1,467.419,333Z" transform="translate(721.233 2077.25)" fill="#ffdb4d"/>
    <path id="Path_193" data-name="Path 193" d="M395.081,258.052c-.081-.2.1-.735-.239-1.071s-.893-.161-1.071-.239-.448-.59-.929-.59-.75.519-.929.59c-.2.083-.737-.1-1.071.239s-.159.869-.239,1.075c-.085.182-.59.449-.59.925s.508.753.59.929c.081.2-.1.737.239,1.071s.875.161,1.071.242c.177.07.442.587.929.587s.753-.521.929-.587c.161-.07.759.075,1.071-.242.337-.337.157-.872.239-1.071s.59-.445.59-.929S395.16,258.233,395.081,258.052Zm-2.239,2.258a1.328,1.328,0,1,1,1.327-1.33A1.332,1.332,0,0,1,392.842,260.31Z" transform="translate(795.165 2151.351)" fill="#ffdb4d"/>
    <path id="Path_194" data-name="Path 194" d="M407.435,458.023a.341.341,0,0,1-.355.07l-2.013-.806-2.016.806a.334.334,0,0,1-.438-.418l.706-2.023a2.443,2.443,0,0,0,.547.04,1.637,1.637,0,0,0,1.2.61,1.667,1.667,0,0,0,1.2-.61,2.465,2.465,0,0,0,.551-.04l.7,2.023A.331.331,0,0,1,407.435,458.023Z" transform="translate(782.94 1957.812)" fill="#ffdb4d"/>
  </g>
</svg>
