<svg xmlns="http://www.w3.org/2000/svg" width="18" height="18" viewBox="0 0 18 18">
  <g id="Group_233" data-name="Group 233" transform="translate(-1101.703 -2619.109)">
    <path id="Path_181" data-name="Path 181" d="M227.611,225.971h3.972v3.972h-3.972Z" transform="translate(881.17 2400.153)" fill="none" stroke="#ff7f4d" stroke-width="2"/>
    <path id="Path_182" data-name="Path 182" d="M136.862,134.012a1.208,1.208,0,0,1-1.209,1.209H125.9a1.208,1.208,0,0,1-1.209-1.209v-9.756a1.208,1.208,0,0,1,1.209-1.209h9.756a1.208,1.208,0,0,1,1.209,1.209Z" transform="translate(979.988 2498.975)" fill="none" stroke="#ff7f4d" stroke-width="2"/>
    <path id="Path_183" data-name="Path 183" d="M220.94,46.664V43.75" transform="translate(887.514 2575.359)" fill="none" stroke="#ff7f4d" stroke-width="2"/>
    <path id="Path_184" data-name="Path 184" d="M342.347,43.75v2.913" transform="translate(770.732 2575.359)" fill="none" stroke="#ff7f4d" stroke-width="2"/>
    <path id="Path_185" data-name="Path 185" d="M220.94,439.871v-2.913" transform="translate(887.514 2197.239)" fill="none" stroke="#ff7f4d" stroke-width="2"/>
    <path id="Path_186" data-name="Path 186" d="M342.347,436.957v2.913" transform="translate(770.732 2197.239)" fill="none" stroke="#ff7f4d" stroke-width="2"/>
    <path id="Path_187" data-name="Path 187" d="M46.724,340.706H43.75" transform="translate(1057.953 2289.716)" fill="none" stroke="#ff7f4d" stroke-width="2"/>
    <path id="Path_188" data-name="Path 188" d="M43.75,219.3h2.974" transform="translate(1057.953 2406.498)" fill="none" stroke="#ff7f4d" stroke-width="2"/>
    <path id="Path_189" data-name="Path 189" d="M438.6,219.3h2.853" transform="translate(678.253 2406.498)" fill="none" stroke="#ff7f4d" stroke-width="2"/>
    <path id="Path_190" data-name="Path 190" d="M441.451,340.706H438.6" transform="translate(678.253 2289.716)" fill="none" stroke="#ff7f4d" stroke-width="2"/>
  </g>
</svg>
