<svg xmlns="http://www.w3.org/2000/svg" width="16" height="15" viewBox="0 0 16 15">
  <g id="Group_236" data-name="Group 236" transform="translate(-1320.579 -2653)">
    <path id="Path_201" data-name="Path 201" d="M127.44,411.25h-5.424v.513a.243.243,0,0,1-.258.256h-2.066a.243.243,0,0,1-.258-.256v-.513h-5.424a.243.243,0,0,0-.258.257v2.821a.243.243,0,0,0,.258.257H127.44a.243.243,0,0,0,.258-.257v-2.821A.243.243,0,0,0,127.44,411.25Z" transform="translate(1207.855 2253.416)" fill="#6ce0fa"/>
    <path id="Path_202" data-name="Path 202" d="M94.492,36.632h-4.9v-1.36A.251.251,0,0,0,89.331,35H84.169a.251.251,0,0,0-.258.272v1.36h-4.9a.251.251,0,0,0-.258.272v8.976a.251.251,0,0,0,.258.272H85.46V45.064a.251.251,0,0,1,.258-.272h2.064a.251.251,0,0,1,.258.272v1.088h6.452a.251.251,0,0,0,.258-.272V36.9A.251.251,0,0,0,94.492,36.632Zm-5.419,0H84.427V35.544h4.645Z" transform="translate(1241.829 2618)" fill="#6ce0fa"/>
  </g>
</svg>
